<?xml version="1.0" standalone="no"?>
<!DOCTYPE svg PUBLIC "-//W3C//DTD SVG 20010904//EN"
 "http://www.w3.org/TR/2001/REC-SVG-20010904/DTD/svg10.dtd">
<svg version="1.0" xmlns="http://www.w3.org/2000/svg"
 width="500.000000pt" height="225.000000pt" viewBox="0 0 500.000000 225.000000"
 preserveAspectRatio="xMidYMid meet">

<g transform="translate(0.000000,225.000000) scale(0.100000,-0.100000)"
fill="#84cc16" stroke="none">
<path d="M140 1588 l0 -203 123 0 122 0 3 -367 2 -368 210 0 210 0 0 364 c0
282 3 365 13 368 6 3 64 5 127 6 l115 1 3 178 c1 98 0 188 -3 201 l-5 22 -460
0 -460 0 0 -202z"/>
<path d="M1516 1732 c-3 -5 -4 -78 -3 -163 l2 -154 103 -3 102 -3 0 -294 0
-295 170 0 170 0 0 295 0 295 100 0 100 0 0 165 0 165 -369 0 c-204 0 -372 -4
-375 -8z"/>
<path d="M3220 1351 l0 -260 -52 26 c-110 55 -265 40 -363 -34 -93 -72 -137
-164 -138 -289 0 -62 4 -82 31 -137 84 -170 273 -245 447 -177 82 32 164 114
194 194 26 71 30 180 7 244 l-15 42 64 0 65 0 0 215 0 215 45 0 c42 0 85 -24
85 -48 0 -24 -29 -44 -68 -45 l-42 -2 0 -44 c0 -32 15 -74 59 -167 l60 -124
110 0 111 0 0 -280 0 -280 275 0 275 0 0 105 0 105 -155 0 c-205 0 -208 19 -2
22 l152 3 3 93 3 92 -156 0 c-97 0 -155 4 -155 10 0 6 58 10 155 10 l155 0 0
60 0 60 250 0 250 0 0 105 0 105 -155 0 c-205 0 -208 19 -2 22 l152 3 3 93 3
92 -156 0 c-97 0 -155 4 -155 10 0 6 58 10 155 10 l155 0 0 105 0 105 -275 0
-275 0 0 -280 0 -280 -249 0 c-217 0 -250 -2 -253 -15 -2 -9 -24 24 -50 72
l-46 88 31 20 c60 39 80 107 62 212 -10 61 -70 126 -143 154 -50 20 -80 23
-254 27 l-198 4 0 -261z m-154 -519 c25 -50 -23 -106 -72 -84 -38 18 -51 55
-30 87 14 22 24 26 54 23 27 -2 40 -9 48 -26z"/>
<path d="M2373 1449 c-50 -19 -53 -23 -53 -55 0 -33 -1 -34 -39 -34 -44 0 -65
-21 -101 -103 -78 -177 20 -400 205 -464 52 -18 159 -23 208 -10 24 7 27 12
27 50 0 43 19 118 41 159 26 49 101 126 145 149 41 22 45 27 39 53 -18 97 -95
195 -190 244 -70 36 -206 42 -282 11z m171 -285 c36 -36 6 -104 -46 -104 -25
0 -58 35 -58 62 0 49 69 78 104 42z"/>
<path d="M1089 1176 c-2 -3 -4 -87 -3 -188 1 -167 3 -187 24 -236 28 -66 103
-135 169 -157 57 -19 150 -21 209 -6 62 17 133 70 162 121 25 45 25 46 22 258
l-3 212 -114 0 -115 0 0 -153 c0 -167 -7 -192 -50 -185 -41 5 -50 40 -50 196
l0 142 -123 0 c-68 0 -126 -2 -128 -4z"/>
</g>
</svg>
